<svg id="svg" version="1.1" xmlns="http://www.w3.org/2000/svg" xmlns:xlink="http://www.w3.org/1999/xlink" width="400" height="400" viewBox="0, 0, 400,400"><g id="svgg"><path id="path0" d="M95.400 69.419 C 92.855 69.890,91.910 70.123,88.800 71.041 C 87.888 71.311,87.179 71.666,84.361 73.262 C 80.589 75.400,75.591 80.272,73.643 83.711 C 71.614 87.293,71.347 87.854,70.835 89.600 C 70.545 90.590,70.162 91.850,69.985 92.400 C 67.943 98.730,70.151 114.134,73.300 115.533 C 73.465 115.607,73.600 115.887,73.600 116.156 C 73.600 117.005,77.905 121.904,80.619 124.142 C 87.034 129.434,96.687 132.142,104.176 130.749 C 108.894 129.872,115.108 127.657,115.533 126.700 C 115.607 126.535,115.887 126.400,116.156 126.400 C 116.424 126.400,117.847 125.408,119.317 124.195 C 134.964 111.289,134.964 88.711,119.317 75.805 C 117.847 74.592,116.424 73.600,116.156 73.600 C 115.887 73.600,115.607 73.465,115.533 73.300 C 114.382 70.709,101.669 68.258,95.400 69.419 M257.163 150.670 C 254.433 150.932,250.760 151.530,249.000 152.000 C 247.240 152.470,245.303 152.953,244.695 153.073 C 244.087 153.194,243.492 153.451,243.371 153.646 C 243.251 153.841,242.848 154.006,242.476 154.013 C 242.104 154.019,240.725 154.559,239.410 155.213 C 238.096 155.866,236.791 156.400,236.510 156.400 C 236.230 156.400,236.000 156.536,236.000 156.702 C 236.000 156.869,235.415 157.259,234.700 157.569 C 228.351 160.325,217.191 170.995,213.841 177.513 C 212.725 179.685,212.400 178.647,212.400 172.905 C 212.400 165.880,211.593 163.172,208.611 160.189 C 206.950 158.529,205.664 157.796,202.772 156.861 C 200.860 156.244,174.285 156.220,172.360 156.834 C 167.969 158.235,165.034 160.860,163.613 164.656 C 162.806 166.813,162.800 167.406,162.800 240.600 L 162.800 314.370 163.656 316.685 C 164.814 319.816,167.784 322.786,170.915 323.944 C 173.596 324.935,199.995 325.280,202.840 324.360 C 208.003 322.692,210.584 320.027,211.955 314.954 C 212.270 313.790,212.400 299.669,212.400 266.782 C 212.400 238.698,212.550 219.770,212.778 219.028 C 212.986 218.353,213.448 216.780,213.805 215.532 C 216.506 206.094,225.102 197.628,234.800 194.852 C 238.577 193.771,239.809 193.600,243.800 193.600 C 249.640 193.600,252.844 194.403,258.600 197.311 C 260.901 198.473,265.944 202.315,267.200 203.863 C 269.434 206.617,270.433 208.090,271.494 210.200 C 273.379 213.947,273.630 214.624,274.774 219.046 C 275.063 220.165,275.200 235.619,275.200 267.218 C 275.200 300.948,275.325 314.136,275.656 315.172 C 277.297 320.310,279.684 322.720,284.760 324.360 C 286.622 324.963,313.378 324.963,315.240 324.360 C 320.269 322.735,322.774 320.232,324.366 315.240 C 324.960 313.378,324.975 216.300,324.382 210.400 C 322.505 191.717,317.908 179.729,308.461 168.880 C 306.504 166.633,299.257 160.400,298.601 160.400 C 298.460 160.400,297.592 159.892,296.672 159.272 C 287.303 152.952,270.820 149.363,257.163 150.670 M84.600 156.902 C 79.596 158.641,77.195 161.066,75.634 165.960 C 74.742 168.756,75.054 313.812,75.958 316.285 C 76.844 318.709,77.934 320.337,79.624 321.759 C 80.750 322.706,81.586 323.148,84.519 324.344 C 86.690 325.229,113.786 324.955,116.338 324.023 C 120.164 322.624,122.624 320.164,124.023 316.338 C 124.949 313.804,125.275 168.788,124.360 165.960 C 122.735 160.931,120.232 158.426,115.240 156.834 C 113.441 156.260,86.275 156.320,84.600 156.902 " stroke="none" fill="#fbfbfb" fill-rule="evenodd"></path><path id="path1" d="M84.700 0.292 C 83.215 0.372,82.000 0.608,82.000 0.818 C 82.000 1.028,81.201 1.200,80.224 1.200 C 79.247 1.200,78.336 1.380,78.200 1.600 C 78.064 1.820,77.243 2.000,76.376 2.000 C 75.509 2.000,74.800 2.180,74.800 2.400 C 74.800 2.620,74.080 2.800,73.200 2.800 C 72.320 2.800,71.600 2.980,71.600 3.200 C 71.600 3.420,71.060 3.600,70.400 3.600 C 69.740 3.600,69.200 3.780,69.200 4.000 C 69.200 4.220,68.660 4.400,68.000 4.400 C 67.340 4.400,66.800 4.580,66.800 4.800 C 66.800 5.020,66.438 5.200,65.995 5.200 C 65.552 5.200,64.832 5.380,64.395 5.600 C 63.958 5.820,63.242 6.180,62.805 6.400 C 62.368 6.620,61.738 6.800,61.405 6.800 C 61.072 6.800,60.800 6.980,60.800 7.200 C 60.800 7.420,60.320 7.600,59.733 7.600 C 59.147 7.600,58.785 7.718,58.930 7.863 C 59.075 8.008,58.160 8.475,56.897 8.902 C 55.633 9.328,54.468 9.885,54.306 10.138 C 54.144 10.392,54.009 10.455,54.006 10.277 C 54.001 9.995,51.738 11.062,51.200 11.600 C 50.662 12.138,48.399 13.205,48.394 12.923 C 48.391 12.745,48.256 12.781,48.094 13.002 C 47.510 13.802,44.893 15.560,44.649 15.316 C 44.512 15.179,44.400 15.277,44.400 15.533 C 44.400 15.790,44.100 16.000,43.733 16.000 C 43.367 16.000,43.178 16.111,43.314 16.248 C 43.647 16.581,42.594 17.600,41.917 17.600 C 41.620 17.600,41.117 17.960,40.800 18.400 C 40.483 18.840,40.020 19.200,39.771 19.200 C 39.522 19.200,38.779 19.716,38.118 20.347 C 37.458 20.978,36.718 21.563,36.474 21.647 C 35.197 22.086,22.400 34.689,22.400 35.507 C 22.400 35.686,21.680 36.628,20.800 37.600 C 19.920 38.572,19.200 39.560,19.200 39.796 C 19.200 40.031,18.840 40.483,18.400 40.800 C 17.960 41.117,17.600 41.620,17.600 41.917 C 17.600 42.594,16.581 43.647,16.248 43.314 C 16.111 43.178,16.000 43.367,16.000 43.733 C 16.000 44.100,15.864 44.400,15.698 44.400 C 15.531 44.400,15.171 44.906,14.897 45.525 C 14.624 46.144,14.033 47.044,13.584 47.525 C 13.136 48.006,12.876 48.400,13.007 48.400 C 13.229 48.400,12.045 50.755,11.600 51.200 C 11.019 51.781,10.056 53.923,10.277 54.144 C 10.418 54.285,10.323 54.400,10.067 54.400 C 9.810 54.400,9.594 54.715,9.587 55.100 C 9.580 55.485,9.310 56.149,8.987 56.576 C 8.664 57.004,8.400 57.779,8.400 58.300 C 8.400 58.830,8.224 59.138,8.000 59.000 C 7.773 58.860,7.600 59.196,7.600 59.776 C 7.600 60.339,7.420 60.800,7.200 60.800 C 6.980 60.800,6.800 61.160,6.800 61.600 C 6.800 62.040,6.620 62.400,6.400 62.400 C 6.180 62.400,6.000 62.839,6.000 63.376 C 6.000 63.913,5.820 64.464,5.600 64.600 C 5.380 64.736,5.200 65.287,5.200 65.824 C 5.200 66.361,5.020 66.800,4.800 66.800 C 4.580 66.800,4.400 67.340,4.400 68.000 C 4.400 68.660,4.220 69.200,4.000 69.200 C 3.780 69.200,3.600 69.729,3.600 70.376 C 3.600 71.023,3.420 71.664,3.200 71.800 C 2.980 71.936,2.800 72.667,2.800 73.424 C 2.800 74.181,2.620 74.800,2.400 74.800 C 2.180 74.800,2.000 75.509,2.000 76.376 C 2.000 77.243,1.820 78.064,1.600 78.200 C 1.380 78.336,1.200 79.232,1.200 80.190 C 1.200 81.229,0.998 82.001,0.700 82.100 C -0.183 82.394,-0.023 318.000,0.861 318.000 C 1.047 318.000,1.200 318.810,1.200 319.800 C 1.200 320.790,1.380 321.600,1.600 321.600 C 1.820 321.600,2.000 322.410,2.000 323.400 C 2.000 324.390,2.180 325.200,2.400 325.200 C 2.620 325.200,2.800 325.740,2.800 326.400 C 2.800 327.060,2.980 327.600,3.200 327.600 C 3.420 327.600,3.600 328.219,3.600 328.976 C 3.600 329.733,3.780 330.464,4.000 330.600 C 4.220 330.736,4.400 331.387,4.400 332.047 C 4.400 332.745,4.567 333.144,4.800 333.000 C 5.155 332.781,5.361 333.632,5.308 335.096 C 5.298 335.368,5.450 335.493,5.645 335.372 C 5.840 335.251,6.000 335.490,6.000 335.901 C 6.000 336.313,6.360 337.395,6.800 338.306 C 7.240 339.216,7.600 340.150,7.600 340.381 C 7.600 340.611,7.780 340.800,8.000 340.800 C 8.220 340.800,8.400 341.149,8.400 341.576 C 8.400 342.003,8.592 342.472,8.827 342.617 C 9.062 342.762,9.158 343.133,9.040 343.440 C 8.914 343.768,9.076 344.000,9.430 344.000 C 9.763 344.000,9.999 344.225,9.956 344.500 C 9.854 345.137,11.487 348.683,12.039 349.024 C 12.267 349.165,12.364 349.518,12.253 349.807 C 12.141 350.097,12.283 350.423,12.567 350.532 C 13.251 350.794,14.821 353.837,14.473 354.225 C 14.323 354.392,14.398 354.416,14.640 354.278 C 14.882 354.140,15.330 354.516,15.637 355.114 C 15.944 355.711,16.511 356.491,16.897 356.847 C 17.284 357.203,17.600 357.706,17.600 357.965 C 17.600 358.224,18.050 358.886,18.600 359.436 C 19.150 359.986,19.600 360.588,19.600 360.773 C 19.600 360.958,20.492 362.059,21.583 363.221 C 22.673 364.382,23.454 365.528,23.319 365.766 C 23.183 366.005,23.212 366.074,23.383 365.919 C 23.689 365.644,24.800 366.492,24.800 367.000 C 24.800 367.141,25.066 367.523,25.391 367.848 C 25.716 368.173,26.214 368.745,26.497 369.120 C 26.780 369.494,27.357 369.992,27.779 370.227 C 28.201 370.461,28.739 370.994,28.973 371.410 C 29.503 372.348,30.400 373.347,30.400 372.998 C 30.400 372.855,30.954 373.292,31.631 373.969 C 32.308 374.646,33.038 375.200,33.254 375.200 C 33.470 375.200,33.536 375.380,33.400 375.600 C 33.264 375.820,33.388 376.002,33.676 376.004 C 33.964 376.007,34.920 376.689,35.800 377.521 C 36.680 378.352,38.030 379.470,38.800 380.005 C 39.570 380.540,40.549 381.298,40.975 381.689 C 41.402 382.080,41.998 382.400,42.299 382.400 C 42.601 382.400,42.736 382.580,42.600 382.800 C 42.464 383.020,42.633 383.200,42.976 383.200 C 43.319 383.200,43.600 383.336,43.600 383.502 C 43.600 383.669,44.141 384.044,44.802 384.337 C 45.464 384.630,45.903 385.034,45.779 385.235 C 45.654 385.436,45.896 385.600,46.314 385.600 C 46.733 385.600,47.402 385.960,47.800 386.400 C 48.198 386.840,48.867 387.200,49.286 387.200 C 49.704 387.200,49.933 387.384,49.794 387.610 C 49.655 387.835,49.697 387.970,49.889 387.910 C 50.295 387.782,54.083 389.627,54.445 390.129 C 54.579 390.316,54.775 390.408,54.880 390.334 C 54.985 390.260,56.225 390.711,57.636 391.336 C 59.046 391.961,60.560 392.612,61.000 392.783 C 61.440 392.953,62.340 393.321,63.000 393.600 C 63.660 393.879,64.650 394.284,65.200 394.500 C 65.750 394.716,66.513 395.052,66.895 395.247 C 67.277 395.441,67.952 395.600,68.395 395.600 C 68.838 395.600,69.200 395.780,69.200 396.000 C 69.200 396.220,69.841 396.400,70.624 396.400 C 71.407 396.400,71.957 396.545,71.847 396.723 C 71.738 396.901,72.402 397.091,73.324 397.145 C 74.246 397.199,75.171 397.413,75.380 397.621 C 75.589 397.830,76.444 398.000,77.280 398.000 C 78.116 398.000,78.800 398.180,78.800 398.400 C 78.800 398.620,79.685 398.800,80.767 398.800 C 81.984 398.800,82.797 398.990,82.900 399.300 C 83.033 399.698,104.131 399.810,186.433 399.850 C 243.285 399.878,289.350 399.825,288.800 399.732 C 288.250 399.640,285.653 399.204,283.029 398.764 C 277.891 397.902,271.931 396.419,268.400 395.124 C 267.190 394.681,265.792 394.225,265.294 394.111 C 264.796 393.997,264.290 393.746,264.170 393.552 C 264.051 393.359,263.691 393.200,263.372 393.200 C 261.912 393.200,252.063 388.248,246.400 384.667 C 233.834 376.719,217.815 360.234,213.880 351.200 C 213.736 350.870,213.078 349.700,212.418 348.600 C 209.837 344.300,207.202 338.340,205.043 331.923 C 202.952 325.707,202.950 325.694,203.900 324.911 C 204.552 324.374,204.545 324.357,203.800 324.667 C 203.360 324.850,196.163 325.049,187.806 325.110 C 172.721 325.218,172.062 325.174,169.200 323.860 C 167.352 323.012,164.347 319.834,163.367 317.691 L 162.400 315.576 162.400 240.412 C 162.400 190.734,162.536 165.163,162.800 165.000 C 163.020 164.864,163.204 164.448,163.210 164.076 C 163.243 161.827,168.411 157.205,171.769 156.420 C 175.880 155.461,203.022 156.019,205.299 157.110 C 210.733 159.712,212.519 163.199,212.822 171.800 C 212.946 175.320,213.081 177.962,213.124 177.672 C 213.193 177.190,215.438 173.670,215.976 173.200 C 216.102 173.090,216.739 172.280,217.393 171.400 C 218.943 169.314,224.160 164.092,226.200 162.586 C 227.080 161.936,227.890 161.300,228.000 161.172 C 229.473 159.462,239.415 154.292,244.400 152.646 C 254.134 149.430,267.688 149.016,279.400 151.578 C 285.148 152.835,297.669 158.206,298.333 159.700 C 298.407 159.865,298.688 160.000,298.958 160.000 C 299.228 160.000,299.798 160.315,300.225 160.700 C 300.652 161.085,301.640 161.877,302.422 162.461 C 312.111 169.691,320.579 184.026,323.061 197.400 C 323.324 198.817,323.375 198.874,323.506 197.900 C 323.620 197.050,323.869 196.800,324.603 196.800 C 325.125 196.800,325.664 196.620,325.800 196.400 C 325.936 196.180,326.442 195.995,326.924 195.990 C 327.876 195.978,333.022 194.311,333.462 193.871 C 333.611 193.722,334.066 193.600,334.472 193.600 C 334.878 193.600,335.523 193.431,335.905 193.224 C 336.287 193.017,337.410 192.523,338.400 192.127 C 361.548 182.865,384.008 160.188,392.408 137.600 C 392.694 136.830,393.079 136.029,393.264 135.820 C 393.449 135.611,393.600 135.056,393.600 134.587 C 393.600 134.117,393.722 133.611,393.871 133.462 C 394.311 133.022,395.978 127.876,395.990 126.924 C 395.995 126.442,396.161 125.948,396.358 125.826 C 396.555 125.705,396.809 124.929,396.924 124.103 C 397.039 123.276,397.339 121.700,397.592 120.600 C 399.158 113.784,399.717 107.750,399.761 97.200 C 399.804 86.906,399.594 82.000,399.112 82.000 C 398.941 82.000,398.800 81.280,398.800 80.400 C 398.800 79.520,398.620 78.800,398.400 78.800 C 398.180 78.800,398.000 77.900,398.000 76.800 C 398.000 75.700,397.820 74.800,397.600 74.800 C 397.380 74.800,397.200 74.260,397.200 73.600 C 397.200 72.940,397.020 72.400,396.800 72.400 C 396.580 72.400,396.400 71.770,396.400 71.000 C 396.400 70.230,396.220 69.600,396.000 69.600 C 395.780 69.600,395.600 69.148,395.600 68.595 C 395.600 68.042,395.434 67.277,395.231 66.895 C 395.028 66.513,394.270 64.670,393.546 62.800 C 392.822 60.930,391.827 58.604,391.334 57.631 C 390.842 56.657,390.531 55.712,390.643 55.531 C 390.755 55.349,390.684 55.200,390.484 55.200 C 390.285 55.200,389.790 54.435,389.386 53.500 C 388.981 52.565,388.396 51.496,388.086 51.125 C 387.775 50.754,387.657 50.231,387.823 49.963 C 388.015 49.653,387.956 49.580,387.662 49.762 C 387.249 50.017,387.020 49.539,387.153 48.700 C 387.179 48.535,386.983 48.445,386.718 48.500 C 386.453 48.555,386.228 48.390,386.218 48.133 C 386.208 47.877,386.065 47.532,385.900 47.367 C 385.735 47.202,385.600 46.726,385.600 46.310 C 385.600 45.893,385.420 45.664,385.200 45.800 C 384.980 45.936,384.800 45.767,384.800 45.424 C 384.800 45.081,384.620 44.800,384.400 44.800 C 384.180 44.800,384.000 44.596,384.000 44.347 C 384.000 44.098,383.651 43.591,383.225 43.222 C 382.799 42.852,382.394 42.291,382.325 41.975 C 382.256 41.659,381.921 41.130,381.581 40.800 C 381.241 40.470,380.525 39.570,379.990 38.800 C 379.455 38.030,378.608 36.987,378.109 36.482 C 377.609 35.977,377.200 35.400,377.200 35.199 C 377.200 34.999,376.194 33.837,374.965 32.617 C 373.736 31.398,372.843 30.400,372.981 30.400 C 373.119 30.400,372.999 30.147,372.716 29.838 C 372.432 29.529,372.035 29.304,371.833 29.338 C 371.631 29.372,371.255 28.996,370.997 28.502 C 370.739 28.009,370.410 27.724,370.264 27.869 C 370.119 28.014,370.000 27.833,370.000 27.467 C 370.000 27.100,369.865 26.797,369.700 26.794 C 369.535 26.790,368.841 26.295,368.157 25.694 C 367.473 25.092,366.321 24.150,365.597 23.600 C 364.874 23.050,363.786 22.150,363.181 21.600 C 361.222 19.820,360.399 19.200,359.995 19.200 C 359.778 19.200,359.600 19.032,359.600 18.827 C 359.600 18.622,359.234 18.338,358.787 18.196 C 358.340 18.054,357.575 17.547,357.087 17.069 C 356.599 16.591,355.711 15.948,355.114 15.640 C 354.516 15.332,354.139 14.899,354.275 14.678 C 354.412 14.457,354.361 14.374,354.162 14.493 C 353.699 14.769,351.136 13.398,351.477 13.056 C 351.618 12.915,351.433 12.800,351.067 12.800 C 350.700 12.800,350.400 12.609,350.400 12.376 C 350.400 12.143,350.209 12.071,349.975 12.216 C 349.741 12.360,349.246 12.218,348.875 11.900 C 348.084 11.222,346.749 10.639,346.249 10.753 C 346.057 10.798,345.639 10.463,345.322 10.010 C 345.005 9.557,344.578 9.290,344.373 9.417 C 344.168 9.544,344.000 9.462,344.000 9.236 C 344.000 9.010,343.748 8.922,343.440 9.040 C 343.133 9.158,342.762 9.062,342.617 8.827 C 342.472 8.592,342.003 8.400,341.576 8.400 C 341.149 8.400,340.800 8.220,340.800 8.000 C 340.800 7.780,340.429 7.600,339.976 7.600 C 339.523 7.600,339.264 7.420,339.400 7.200 C 339.536 6.980,339.322 6.797,338.924 6.794 C 337.974 6.786,335.139 5.794,335.379 5.554 C 335.482 5.451,334.988 5.324,334.283 5.271 C 333.577 5.218,332.940 5.000,332.867 4.787 C 332.793 4.574,332.309 4.400,331.790 4.400 C 331.272 4.400,330.736 4.220,330.600 4.000 C 330.464 3.780,329.913 3.600,329.376 3.600 C 328.839 3.600,328.400 3.457,328.400 3.282 C 328.400 3.107,327.725 2.918,326.901 2.863 C 326.076 2.807,325.230 2.590,325.021 2.381 C 324.811 2.171,323.956 2.000,323.120 2.000 C 322.284 2.000,321.600 1.820,321.600 1.600 C 321.600 1.380,320.910 1.200,320.067 1.200 C 319.223 1.200,318.408 1.075,318.255 0.922 C 318.102 0.769,317.667 0.552,317.288 0.440 C 316.515 0.211,88.922 0.067,84.700 0.292 M107.503 69.003 C 108.439 69.158,109.305 69.445,109.426 69.642 C 109.548 69.839,109.952 69.999,110.324 69.997 C 111.203 69.992,117.600 73.211,117.600 73.658 C 117.600 73.846,117.778 74.000,117.995 74.000 C 119.049 74.000,126.000 80.951,126.000 82.005 C 126.000 82.222,126.180 82.400,126.400 82.400 C 126.620 82.400,126.800 82.655,126.800 82.967 C 126.800 83.278,126.935 83.593,127.100 83.667 C 127.390 83.796,128.887 86.755,129.697 88.800 C 129.915 89.350,130.252 90.113,130.447 90.495 C 130.641 90.877,130.800 91.721,130.800 92.371 C 130.800 93.021,130.980 93.664,131.200 93.800 C 131.438 93.947,131.600 96.463,131.600 100.000 C 131.600 103.537,131.438 106.053,131.200 106.200 C 130.980 106.336,130.800 107.056,130.800 107.800 C 130.800 108.544,130.620 109.264,130.400 109.400 C 130.180 109.536,130.000 109.924,130.000 110.263 C 130.000 111.177,126.957 117.192,125.696 118.772 C 120.702 125.025,114.328 129.074,106.400 131.029 C 103.814 131.667,94.169 131.798,93.800 131.200 C 93.664 130.980,93.021 130.800,92.371 130.800 C 91.721 130.800,90.877 130.641,90.495 130.447 C 90.113 130.252,89.350 129.915,88.800 129.697 C 86.755 128.887,83.796 127.390,83.667 127.100 C 83.593 126.935,83.278 126.800,82.967 126.800 C 82.655 126.800,82.400 126.620,82.400 126.400 C 82.400 126.180,82.222 126.000,82.005 126.000 C 80.972 126.000,74.000 119.028,74.000 117.995 C 74.000 117.778,73.820 117.600,73.600 117.600 C 73.380 117.600,73.200 117.345,73.200 117.033 C 73.200 116.722,73.056 116.407,72.880 116.333 C 72.441 116.150,70.000 110.993,70.000 110.249 C 70.000 109.918,69.839 109.548,69.642 109.426 C 68.308 108.602,68.296 93.714,69.627 90.500 C 69.832 90.005,70.157 89.195,70.349 88.700 C 71.079 86.820,72.612 83.795,72.900 83.667 C 73.065 83.593,73.200 83.278,73.200 82.967 C 73.200 82.655,73.380 82.400,73.600 82.400 C 73.820 82.400,74.000 82.212,74.000 81.983 C 74.000 81.061,81.061 74.000,81.983 74.000 C 82.212 74.000,82.401 73.865,82.403 73.700 C 82.405 73.535,82.810 73.202,83.303 72.960 C 83.796 72.717,85.010 72.107,86.000 71.603 C 86.990 71.099,88.250 70.511,88.800 70.297 C 89.350 70.082,90.113 69.748,90.495 69.553 C 90.877 69.359,91.687 69.197,92.295 69.194 C 92.903 69.191,93.670 69.008,94.000 68.789 C 94.644 68.360,104.564 68.518,107.503 69.003 M117.073 156.862 C 119.499 157.769,123.600 161.358,123.600 162.574 C 123.600 162.918,123.736 163.200,123.903 163.200 C 125.313 163.200,126.052 312.520,124.660 316.515 C 123.448 319.998,119.998 323.448,116.515 324.660 C 114.334 325.420,85.666 325.420,83.485 324.660 C 80.002 323.448,76.552 319.998,75.340 316.515 C 74.910 315.282,74.811 301.135,74.806 240.512 L 74.800 166.024 75.843 163.744 C 77.182 160.817,80.167 157.899,82.897 156.850 C 86.240 155.565,113.632 155.574,117.073 156.862 M238.800 194.468 C 224.829 197.356,215.488 206.896,213.214 220.600 C 212.464 225.114,212.802 250.911,213.590 249.361 C 219.543 237.652,235.738 221.277,248.531 214.032 C 249.339 213.574,250.675 212.813,251.500 212.341 C 253.188 211.374,256.994 209.475,259.400 208.399 C 266.051 205.425,266.941 205.228,268.285 206.435 C 268.875 206.966,268.514 206.410,267.481 205.200 C 263.436 200.462,256.885 196.338,251.600 195.203 C 250.390 194.943,248.749 194.566,247.954 194.365 C 246.165 193.914,241.213 193.969,238.800 194.468 M323.646 201.200 C 323.665 201.530,323.824 202.250,324.000 202.800 L 324.320 203.800 324.354 202.800 C 324.373 202.250,324.213 201.530,324.000 201.200 C 323.655 200.667,323.616 200.667,323.646 201.200 M324.677 208.400 C 324.803 209.830,324.972 211.075,325.053 211.167 C 325.342 211.495,325.114 207.780,324.784 206.800 C 324.574 206.173,324.534 206.770,324.677 208.400 M274.087 220.200 C 274.083 220.860,274.224 221.850,274.400 222.400 L 274.720 223.400 274.713 222.400 C 274.709 221.850,274.568 220.860,274.400 220.200 L 274.095 219.000 274.087 220.200 M212.454 314.667 C 212.425 315.144,212.296 315.864,212.170 316.267 C 211.952 316.961,211.964 316.962,212.396 316.288 C 212.647 315.897,212.775 315.177,212.681 314.688 C 212.509 313.801,212.509 313.801,212.454 314.667 M274.828 315.476 C 274.813 315.958,274.980 316.464,275.200 316.600 C 275.673 316.892,275.673 316.501,275.200 315.400 C 274.869 314.629,274.855 314.631,274.828 315.476 M324.846 315.067 C 324.821 315.324,324.684 315.864,324.541 316.267 C 324.340 316.836,324.394 316.897,324.779 316.542 C 325.052 316.291,325.189 315.751,325.084 315.342 C 324.979 314.934,324.872 314.810,324.846 315.067 M210.281 319.839 C 209.886 320.368,209.708 320.800,209.885 320.800 C 210.234 320.800,211.338 319.201,211.128 319.000 C 211.057 318.933,210.677 319.311,210.281 319.839 M278.196 321.596 C 278.826 322.254,279.419 322.714,279.513 322.620 C 279.722 322.412,277.756 320.400,277.343 320.400 C 277.182 320.400,277.566 320.938,278.196 321.596 M321.375 321.700 L 320.200 323.000 321.500 321.825 C 322.215 321.179,322.800 320.594,322.800 320.525 C 322.800 320.216,322.470 320.488,321.375 321.700 M208.200 322.076 L 207.400 322.904 208.278 322.450 C 209.202 321.972,209.874 321.183,209.324 321.224 C 209.146 321.237,208.640 321.620,208.200 322.076 M283.400 324.800 C 283.536 325.020,284.042 325.187,284.524 325.172 C 285.369 325.145,285.371 325.131,284.600 324.800 C 283.499 324.327,283.108 324.327,283.400 324.800 M315.400 324.800 C 314.629 325.131,314.631 325.145,315.476 325.172 C 315.958 325.187,316.464 325.020,316.600 324.800 C 316.892 324.327,316.501 324.327,315.400 324.800 " stroke="none" fill="#366ebe" fill-rule="evenodd"></path><path id="path2" d="M363.600 21.900 C 363.600 22.069,363.960 22.432,364.400 22.707 C 364.840 22.982,365.200 23.069,365.200 22.900 C 365.200 22.731,364.840 22.368,364.400 22.093 C 363.960 21.818,363.600 21.731,363.600 21.900 M399.505 107.200 C 399.343 107.750,399.208 109.089,399.205 110.176 C 399.200 112.129,398.855 114.343,397.705 119.800 C 397.381 121.340,397.025 123.276,396.915 124.103 C 396.805 124.929,396.555 125.705,396.358 125.826 C 396.161 125.948,395.995 126.442,395.990 126.924 C 395.978 127.876,394.311 133.022,393.871 133.462 C 393.722 133.611,393.600 134.117,393.600 134.587 C 393.600 135.056,393.449 135.611,393.264 135.820 C 393.079 136.029,392.694 136.830,392.408 137.600 C 384.008 160.188,361.548 182.865,338.400 192.127 C 337.410 192.523,336.287 193.017,335.905 193.224 C 335.523 193.431,334.878 193.600,334.472 193.600 C 334.066 193.600,333.611 193.722,333.462 193.871 C 333.022 194.311,327.876 195.978,326.924 195.990 C 326.442 195.995,325.936 196.180,325.800 196.400 C 325.664 196.620,325.097 196.800,324.539 196.800 C 323.403 196.800,323.392 197.573,324.437 203.800 C 325.111 207.817,325.415 315.376,324.756 316.800 C 324.501 317.350,324.092 318.250,323.846 318.800 C 323.235 320.169,320.064 323.280,318.600 323.947 C 317.940 324.247,317.087 324.652,316.705 324.847 C 315.799 325.308,284.201 325.308,283.295 324.847 C 282.913 324.652,282.060 324.247,281.400 323.947 C 279.867 323.248,276.400 319.831,276.400 319.019 C 276.400 318.679,276.220 318.400,276.000 318.400 C 275.780 318.400,275.600 318.076,275.600 317.680 C 275.600 317.284,275.423 316.783,275.206 316.566 C 274.955 316.315,274.760 299.260,274.667 269.186 C 274.567 237.022,274.381 221.506,274.078 220.000 C 273.835 218.790,273.517 217.213,273.372 216.495 C 273.227 215.777,272.949 215.092,272.754 214.971 C 272.559 214.851,272.400 214.420,272.400 214.014 C 272.400 213.314,270.878 210.028,270.356 209.600 C 270.222 209.490,269.835 208.860,269.497 208.199 C 267.832 204.947,267.086 204.962,259.400 208.399 C 256.994 209.475,253.188 211.374,251.500 212.341 C 250.675 212.813,249.339 213.574,248.531 214.032 C 235.771 221.258,220.950 236.156,213.824 248.919 L 212.800 250.754 212.800 283.165 L 212.800 315.576 211.784 317.797 C 210.421 320.777,208.241 322.919,205.038 324.424 C 202.790 325.481,202.790 325.227,205.043 331.923 C 207.202 338.340,209.837 344.300,212.418 348.600 C 213.078 349.700,213.736 350.870,213.880 351.200 C 217.815 360.234,233.834 376.719,246.400 384.667 C 252.063 388.248,261.912 393.200,263.372 393.200 C 263.691 393.200,264.051 393.359,264.170 393.552 C 264.290 393.746,264.796 393.997,265.294 394.111 C 265.792 394.225,267.190 394.681,268.400 395.124 C 271.746 396.351,277.706 397.861,283.229 398.882 C 289.165 399.978,317.560 400.321,317.900 399.300 C 318.003 398.991,318.811 398.800,320.010 398.800 C 321.078 398.800,322.064 398.620,322.200 398.400 C 322.336 398.180,323.067 398.000,323.824 398.000 C 324.581 398.000,325.200 397.820,325.200 397.600 C 325.200 397.380,325.819 397.200,326.576 397.200 C 327.333 397.200,328.064 397.020,328.200 396.800 C 328.336 396.580,328.977 396.400,329.624 396.400 C 330.271 396.400,330.800 396.220,330.800 396.000 C 330.800 395.780,331.340 395.600,332.000 395.600 C 332.660 395.600,333.200 395.420,333.200 395.200 C 333.200 394.980,333.740 394.800,334.400 394.800 C 335.060 394.800,335.600 394.620,335.600 394.400 C 335.600 394.180,335.960 394.000,336.400 394.000 C 336.840 394.000,337.200 393.820,337.200 393.600 C 337.200 393.380,337.751 393.200,338.424 393.200 C 339.137 393.200,339.544 393.033,339.400 392.800 C 339.260 392.573,339.596 392.400,340.176 392.400 C 340.739 392.400,341.200 392.228,341.200 392.018 C 341.200 391.808,341.830 391.518,342.600 391.374 C 343.370 391.229,344.000 390.951,344.000 390.755 C 344.000 390.560,344.135 390.443,344.300 390.495 C 344.789 390.650,347.200 389.533,347.200 389.151 C 347.200 388.958,347.560 388.800,348.000 388.800 C 348.440 388.800,348.800 388.620,348.800 388.400 C 348.800 388.180,349.160 388.000,349.600 388.000 C 350.040 388.000,350.400 387.820,350.400 387.600 C 350.400 387.380,350.720 387.200,351.112 387.200 C 351.503 387.200,352.083 386.840,352.400 386.400 C 352.717 385.960,353.297 385.600,353.688 385.600 C 354.080 385.600,354.400 385.420,354.400 385.200 C 354.400 384.980,354.670 384.800,355.000 384.800 C 355.330 384.800,355.600 384.620,355.600 384.400 C 355.600 384.180,355.870 384.000,356.200 384.000 C 356.530 384.000,356.800 383.820,356.800 383.600 C 356.800 383.380,356.998 383.200,357.240 383.200 C 357.481 383.200,358.183 382.660,358.800 382.000 C 359.417 381.340,360.137 380.800,360.400 380.800 C 360.663 380.800,361.383 380.260,362.000 379.600 C 362.617 378.940,363.288 378.400,363.492 378.400 C 363.976 378.400,366.734 375.895,371.312 371.296 C 376.500 366.085,377.600 364.881,377.600 364.412 C 377.600 364.186,378.320 363.259,379.200 362.352 C 380.080 361.445,380.800 360.527,380.800 360.312 C 380.800 360.097,381.340 359.417,382.000 358.800 C 382.660 358.183,383.200 357.481,383.200 357.240 C 383.200 356.998,383.380 356.800,383.600 356.800 C 383.820 356.800,384.000 356.530,384.000 356.200 C 384.000 355.870,384.180 355.600,384.400 355.600 C 384.620 355.600,384.800 355.330,384.800 355.000 C 384.800 354.670,384.980 354.400,385.200 354.400 C 385.420 354.400,385.600 354.106,385.600 353.747 C 385.600 353.388,385.915 352.803,386.300 352.447 C 386.685 352.091,387.058 351.530,387.130 351.200 C 387.201 350.870,387.426 350.540,387.630 350.467 C 387.833 350.393,388.000 349.988,388.000 349.567 C 388.000 349.145,388.180 348.800,388.400 348.800 C 388.620 348.800,388.800 348.440,388.800 348.000 C 388.800 347.560,388.938 347.200,389.106 347.200 C 389.475 347.200,391.070 343.836,391.429 342.300 C 391.571 341.695,391.847 341.200,392.043 341.200 C 392.240 341.200,392.400 340.739,392.400 340.176 C 392.400 339.596,392.573 339.260,392.800 339.400 C 393.033 339.544,393.200 339.137,393.200 338.424 C 393.200 337.751,393.380 337.200,393.600 337.200 C 393.820 337.200,394.000 336.840,394.000 336.400 C 394.000 335.960,394.180 335.600,394.400 335.600 C 394.620 335.600,394.800 335.060,394.800 334.400 C 394.800 333.740,394.980 333.200,395.200 333.200 C 395.420 333.200,395.600 332.658,395.600 331.995 C 395.600 331.332,395.808 330.387,396.062 329.895 C 397.093 327.902,397.200 327.556,397.200 326.229 C 397.200 325.469,397.380 324.736,397.600 324.600 C 397.820 324.464,398.000 323.823,398.000 323.176 C 398.000 322.529,398.180 322.000,398.400 322.000 C 398.620 322.000,398.800 321.226,398.800 320.280 C 398.800 319.334,399.025 318.335,399.300 318.060 C 399.697 317.663,399.823 297.654,399.909 221.280 C 400.024 119.308,399.976 105.603,399.505 107.200 M22.056 364.341 C 22.310 364.748,22.883 365.309,23.328 365.587 C 24.029 366.025,24.008 365.929,23.169 364.869 C 22.110 363.530,21.314 363.153,22.056 364.341 M27.600 370.167 C 27.600 370.588,28.805 371.728,29.021 371.512 C 29.122 371.411,28.844 371.002,28.402 370.602 C 27.961 370.203,27.600 370.007,27.600 370.167 M34.000 376.167 C 34.000 376.588,35.205 377.728,35.421 377.512 C 35.522 377.411,35.244 377.002,34.802 376.602 C 34.361 376.203,34.000 376.007,34.000 376.167 " stroke="none" fill="#0c4c9c" fill-rule="evenodd"></path><path id="path3" d="M94.138 68.706 C 93.884 68.868,96.522 69.000,100.000 69.000 C 103.478 69.000,106.116 68.868,105.862 68.706 C 105.608 68.544,102.970 68.412,100.000 68.412 C 97.030 68.412,94.392 68.544,94.138 68.706 M90.400 69.595 C 90.070 69.786,89.459 70.050,89.043 70.181 C 88.626 70.312,88.379 70.512,88.493 70.626 C 88.607 70.740,89.398 70.567,90.250 70.241 C 91.103 69.915,92.160 69.568,92.600 69.470 C 93.113 69.356,92.970 69.285,92.200 69.270 C 91.540 69.257,90.730 69.403,90.400 69.595 M107.400 69.480 C 109.473 69.966,112.050 70.989,114.700 72.377 C 116.295 73.212,117.600 73.765,117.600 73.606 C 117.600 73.196,111.142 69.993,110.324 69.997 C 109.952 69.999,109.536 69.820,109.400 69.600 C 109.264 69.380,108.578 69.221,107.876 69.246 C 107.049 69.276,106.881 69.359,107.400 69.480 M85.600 71.665 C 83.260 73.016,83.260 73.355,85.600 72.195 C 88.127 70.942,88.346 70.789,87.567 70.828 C 87.255 70.844,86.370 71.221,85.600 71.665 M79.800 75.671 L 78.200 77.302 80.100 75.766 C 81.145 74.922,82.000 74.179,82.000 74.115 C 82.000 73.685,81.175 74.269,79.800 75.671 M120.171 75.911 C 120.815 76.615,121.421 77.112,121.518 77.015 C 121.711 76.822,121.053 76.134,119.798 75.215 C 119.359 74.894,119.527 75.207,120.171 75.911 M122.009 77.467 C 122.004 77.723,122.140 77.993,122.312 78.067 C 122.483 78.140,123.327 79.051,124.188 80.090 C 125.049 81.130,125.821 81.912,125.905 81.828 C 126.064 81.670,125.482 80.914,123.309 78.459 C 122.599 77.656,122.014 77.210,122.009 77.467 M75.424 80.026 C 74.596 80.921,73.993 81.726,74.083 81.816 C 74.173 81.907,74.920 81.175,75.743 80.190 C 77.611 77.956,77.427 77.861,75.424 80.026 M71.650 85.623 C 71.127 86.729,70.777 87.710,70.872 87.805 C 70.967 87.900,71.527 86.993,72.118 85.789 C 72.708 84.585,73.058 83.603,72.896 83.607 C 72.733 83.611,72.172 84.518,71.650 85.623 M127.419 84.837 C 127.771 85.518,128.134 86.000,128.225 85.908 C 128.469 85.665,127.455 83.607,127.090 83.603 C 126.919 83.601,127.067 84.157,127.419 84.837 M70.180 89.043 C 70.049 89.459,69.775 90.113,69.571 90.495 C 69.367 90.877,69.221 91.687,69.246 92.295 C 69.280 93.100,69.341 93.183,69.470 92.600 C 69.568 92.160,69.915 91.103,70.241 90.250 C 70.567 89.398,70.740 88.607,70.626 88.493 C 70.512 88.379,70.311 88.626,70.180 89.043 M130.240 91.466 C 130.608 92.999,130.800 93.144,130.800 91.890 C 130.800 91.317,130.613 90.732,130.384 90.590 C 130.111 90.421,130.062 90.723,130.240 91.466 M68.643 94.233 C 68.297 95.133,68.353 105.307,68.706 105.862 C 68.868 106.116,69.000 103.461,69.000 99.962 C 69.000 96.463,68.974 93.600,68.943 93.600 C 68.911 93.600,68.776 93.885,68.643 94.233 M131.000 100.000 C 131.000 103.478,131.135 106.240,131.300 106.138 C 131.465 106.036,131.600 103.274,131.600 100.000 C 131.600 96.726,131.465 93.964,131.300 93.862 C 131.135 93.760,131.000 96.522,131.000 100.000 M69.246 107.876 C 69.221 108.578,69.380 109.264,69.600 109.400 C 69.820 109.536,70.000 109.907,70.000 110.224 C 70.000 111.021,72.529 116.391,72.907 116.396 C 73.075 116.398,72.759 115.504,72.204 114.408 C 71.185 112.397,69.813 108.873,69.476 107.400 C 69.359 106.889,69.276 107.061,69.246 107.876 M130.454 107.667 C 130.425 108.034,130.284 108.664,130.141 109.067 C 129.941 109.633,129.995 109.696,130.375 109.346 C 130.646 109.097,130.787 108.467,130.688 107.946 C 130.590 107.426,130.484 107.300,130.454 107.667 M126.253 117.192 C 125.668 118.076,125.326 118.798,125.494 118.795 C 125.879 118.789,127.717 115.984,127.487 115.754 C 127.394 115.660,126.838 116.307,126.253 117.192 M75.215 119.798 C 76.134 121.053,76.822 121.711,77.015 121.518 C 77.112 121.421,76.615 120.815,75.911 120.171 C 75.207 119.527,74.894 119.359,75.215 119.798 M122.060 122.251 C 121.543 122.802,121.196 123.329,121.289 123.422 C 121.382 123.515,121.974 123.054,122.604 122.396 C 123.234 121.738,123.581 121.211,123.375 121.224 C 123.169 121.238,122.577 121.700,122.060 122.251 M78.473 123.300 C 81.081 125.601,81.673 126.060,81.828 125.905 C 81.912 125.821,81.130 125.049,80.090 124.188 C 79.051 123.327,78.140 122.483,78.067 122.312 C 77.993 122.140,77.723 122.000,77.467 122.000 C 77.210 122.000,77.663 122.585,78.473 123.300 M119.200 124.835 L 117.800 126.048 119.295 125.124 C 120.117 124.616,120.792 124.065,120.795 123.900 C 120.802 123.464,120.738 123.502,119.200 124.835 M83.603 127.090 C 83.607 127.455,85.665 128.469,85.908 128.225 C 86.000 128.134,85.518 127.771,84.837 127.419 C 84.157 127.067,83.601 126.919,83.603 127.090 M90.590 130.384 C 90.732 130.613,91.317 130.800,91.890 130.800 C 93.144 130.800,92.999 130.608,91.466 130.240 C 90.723 130.062,90.421 130.111,90.590 130.384 M107.600 130.400 C 106.776 130.664,106.741 130.726,107.400 130.754 C 107.840 130.773,108.470 130.613,108.800 130.400 C 109.501 129.947,109.014 129.947,107.600 130.400 M93.861 131.298 C 93.963 131.464,96.512 131.573,99.524 131.540 C 105.743 131.472,105.224 131.285,98.337 131.113 C 95.773 131.049,93.758 131.132,93.861 131.298 M269.700 150.276 C 270.085 150.376,270.715 150.376,271.100 150.276 C 271.485 150.175,271.170 150.093,270.400 150.093 C 269.630 150.093,269.315 150.175,269.700 150.276 M249.600 151.200 C 248.796 151.457,248.757 151.523,249.400 151.532 C 249.840 151.538,250.560 151.389,251.000 151.200 C 252.019 150.762,250.968 150.762,249.600 151.200 M276.000 151.200 C 276.550 151.376,277.360 151.520,277.800 151.520 C 278.433 151.520,278.392 151.454,277.600 151.200 C 277.050 151.024,276.240 150.880,275.800 150.880 C 275.167 150.880,275.208 150.946,276.000 151.200 M279.800 152.000 C 280.240 152.189,280.960 152.338,281.400 152.332 C 282.043 152.323,282.004 152.257,281.200 152.000 C 279.832 151.562,278.781 151.562,279.800 152.000 M92.300 156.299 C 96.535 156.364,103.465 156.364,107.700 156.299 C 111.935 156.235,108.470 156.182,100.000 156.182 C 91.530 156.182,88.065 156.235,92.300 156.299 M179.900 156.299 C 184.135 156.364,191.065 156.364,195.300 156.299 C 199.535 156.235,196.070 156.182,187.600 156.182 C 179.130 156.182,175.665 156.235,179.900 156.299 M81.500 157.429 C 79.949 158.270,80.125 158.561,81.700 157.759 C 83.208 156.993,83.475 156.794,82.967 156.816 C 82.765 156.825,82.105 157.101,81.500 157.429 M168.800 157.644 C 168.250 158.098,168.026 158.353,168.301 158.210 C 170.606 157.019,170.926 156.806,170.400 156.811 C 170.070 156.815,169.350 157.189,168.800 157.644 M121.200 159.800 C 121.946 160.570,122.647 161.200,122.757 161.200 C 122.867 161.200,122.346 160.570,121.600 159.800 C 120.854 159.030,120.153 158.400,120.043 158.400 C 119.933 158.400,120.454 159.030,121.200 159.800 M165.978 159.900 L 164.600 161.400 166.100 160.022 C 166.925 159.263,167.600 158.588,167.600 158.522 C 167.600 158.216,167.262 158.504,165.978 159.900 M302.422 162.700 C 302.434 162.865,303.019 163.438,303.722 163.974 L 305.000 164.949 303.825 163.674 C 302.603 162.349,302.385 162.197,302.422 162.700 M75.049 165.415 C 74.912 165.773,74.818 166.456,74.841 166.933 C 74.867 167.481,75.003 167.286,75.210 166.403 C 75.560 164.916,75.465 164.333,75.049 165.415 M124.658 166.000 C 124.975 167.725,125.202 168.051,125.194 166.767 C 125.191 166.235,125.011 165.530,124.794 165.200 C 124.518 164.778,124.477 165.015,124.658 166.000 M221.178 167.100 L 219.800 168.600 221.300 167.222 C 222.696 165.938,222.984 165.600,222.678 165.600 C 222.612 165.600,221.937 166.275,221.178 167.100 M212.474 171.876 C 212.433 175.218,212.535 178.037,212.700 178.139 C 212.865 178.242,212.953 176.408,212.895 174.063 C 212.708 166.481,212.550 165.659,212.474 171.876 M309.200 169.064 C 309.200 169.282,309.695 169.897,310.300 170.430 L 311.400 171.400 310.400 170.200 C 309.850 169.540,309.355 168.925,309.300 168.833 C 309.245 168.742,309.200 168.845,309.200 169.064 M313.385 174.700 C 314.002 175.635,314.583 176.400,314.676 176.400 C 314.964 176.400,313.433 173.966,312.832 173.469 C 312.520 173.211,312.768 173.765,313.385 174.700 M247.800 194.390 C 248.564 194.728,251.114 194.957,250.767 194.656 C 250.675 194.576,249.790 194.404,248.800 194.273 C 247.598 194.114,247.266 194.153,247.800 194.390 M229.100 197.429 C 227.549 198.270,227.725 198.561,229.300 197.759 C 230.808 196.993,231.075 196.794,230.567 196.816 C 230.365 196.825,229.705 197.101,229.100 197.429 M221.578 203.100 L 220.200 204.600 221.796 203.200 C 222.673 202.430,223.468 201.755,223.562 201.700 C 223.656 201.645,223.559 201.600,223.345 201.600 C 223.132 201.600,222.337 202.275,221.578 203.100 M266.800 204.264 C 266.800 204.482,267.295 205.097,267.900 205.630 L 269.000 206.600 268.000 205.400 C 267.450 204.740,266.955 204.125,266.900 204.033 C 266.845 203.942,266.800 204.045,266.800 204.264 M215.780 211.240 C 215.211 212.362,214.813 213.347,214.895 213.429 C 214.977 213.511,215.527 212.593,216.118 211.389 C 216.708 210.185,217.106 209.200,217.002 209.200 C 216.898 209.200,216.348 210.118,215.780 211.240 M324.994 263.000 C 324.994 291.600,325.042 303.241,325.100 288.869 C 325.158 274.497,325.158 251.097,325.100 236.869 C 325.042 222.641,324.994 234.400,324.994 263.000 M212.593 268.400 C 212.593 293.590,212.641 303.895,212.700 291.300 C 212.759 278.705,212.759 258.095,212.700 245.500 C 212.641 232.905,212.593 243.210,212.593 268.400 M274.993 269.200 C 274.993 294.390,275.041 304.695,275.100 292.100 C 275.159 279.505,275.159 258.895,275.100 246.300 C 275.041 233.705,274.993 244.010,274.993 269.200 M74.806 314.433 C 74.809 314.965,74.989 315.670,75.206 316.000 C 75.482 316.422,75.523 316.185,75.342 315.200 C 75.025 313.475,74.798 313.149,74.806 314.433 M124.854 314.267 C 124.825 314.744,124.696 315.464,124.570 315.867 C 124.352 316.561,124.364 316.562,124.796 315.888 C 125.047 315.497,125.175 314.777,125.081 314.288 C 124.909 313.401,124.909 313.401,124.854 314.267 M78.400 321.400 C 79.146 322.170,79.847 322.800,79.957 322.800 C 80.067 322.800,79.546 322.170,78.800 321.400 C 78.054 320.630,77.353 320.000,77.243 320.000 C 77.133 320.000,77.654 320.630,78.400 321.400 M121.178 321.500 L 119.800 323.000 121.300 321.622 C 122.696 320.338,122.984 320.000,122.678 320.000 C 122.612 320.000,121.937 320.675,121.178 321.500 M321.178 321.500 L 319.800 323.000 321.300 321.622 C 322.696 320.338,322.984 320.000,322.678 320.000 C 322.612 320.000,321.937 320.675,321.178 321.500 M84.000 324.794 C 84.330 325.011,85.035 325.191,85.567 325.194 C 86.851 325.202,86.525 324.975,84.800 324.658 C 83.815 324.477,83.578 324.518,84.000 324.794 M114.600 324.800 C 113.493 325.082,113.477 325.109,114.400 325.147 C 114.950 325.169,115.670 325.013,116.000 324.800 C 116.681 324.360,116.329 324.360,114.600 324.800 M292.500 325.099 C 296.625 325.164,303.375 325.164,307.500 325.099 C 311.625 325.034,308.250 324.981,300.000 324.981 C 291.750 324.981,288.375 325.034,292.500 325.099 " stroke="none" fill="#7c9ece" fill-rule="evenodd"></path><path id="path4" d="M94.000 69.200 L 93.000 69.520 94.000 69.537 C 94.550 69.546,95.720 69.405,96.600 69.223 L 98.200 68.892 96.600 68.886 C 95.720 68.883,94.550 69.024,94.000 69.200 M103.400 69.223 C 104.280 69.405,105.450 69.546,106.000 69.537 L 107.000 69.520 106.000 69.200 C 105.450 69.024,104.280 68.883,103.400 68.886 L 101.800 68.892 103.400 69.223 M90.800 70.000 C 90.303 70.321,90.338 70.388,91.000 70.388 C 91.440 70.388,92.070 70.213,92.400 70.000 C 92.897 69.679,92.862 69.612,92.200 69.612 C 91.760 69.612,91.130 69.787,90.800 70.000 M107.800 70.000 C 108.996 70.514,109.995 70.514,109.200 70.000 C 108.870 69.787,108.240 69.622,107.800 69.634 L 107.000 69.656 107.800 70.000 M110.400 70.800 C 110.730 71.013,111.270 71.188,111.600 71.188 C 112.133 71.188,112.133 71.145,111.600 70.800 C 111.270 70.587,110.730 70.412,110.400 70.412 C 109.867 70.412,109.867 70.455,110.400 70.800 M84.001 73.038 C 82.357 73.977,80.327 75.516,78.173 77.455 C 76.690 78.790,73.621 82.791,72.756 84.515 C 71.707 86.609,72.388 86.004,73.662 83.711 C 75.431 80.526,82.386 73.631,83.870 73.591 C 84.225 73.582,86.333 72.021,86.000 72.014 C 85.890 72.011,84.990 72.472,84.001 73.038 M115.600 73.176 C 115.600 73.409,115.835 73.600,116.122 73.600 C 117.443 73.600,123.536 79.470,126.512 83.610 C 127.143 84.488,127.175 84.498,126.795 83.695 C 125.688 81.355,121.243 76.576,118.200 74.453 C 115.908 72.853,115.600 72.702,115.600 73.176 M127.200 84.988 C 127.200 85.091,127.526 85.766,127.924 86.488 C 128.808 88.092,130.385 93.057,130.440 94.411 C 130.462 94.955,130.639 95.850,130.833 96.400 C 131.567 98.481,130.740 92.994,129.960 90.612 C 128.945 87.512,127.200 83.956,127.200 84.988 M69.888 90.933 C 69.410 92.149,69.524 93.173,70.039 92.287 C 70.267 91.896,70.391 91.266,70.315 90.887 C 70.188 90.260,70.151 90.264,69.888 90.933 M69.090 94.350 C 68.931 95.093,68.820 96.263,68.844 96.950 C 68.881 98.017,68.941 97.936,69.249 96.400 C 69.448 95.410,69.559 94.240,69.496 93.800 C 69.418 93.259,69.286 93.437,69.090 94.350 M68.886 103.400 C 68.883 104.280,69.024 105.450,69.200 106.000 L 69.520 107.000 69.537 106.000 C 69.546 105.450,69.405 104.280,69.223 103.400 L 68.892 101.800 68.886 103.400 M130.588 104.538 C 130.439 105.535,130.399 106.586,130.500 106.875 C 130.600 107.164,130.818 106.443,130.982 105.274 C 131.147 104.105,131.187 103.054,131.071 102.938 C 130.955 102.822,130.738 103.542,130.588 104.538 M69.634 107.800 C 69.622 108.240,69.787 108.870,70.000 109.200 C 70.514 109.995,70.514 108.996,70.000 107.800 L 69.656 107.000 69.634 107.800 M129.364 109.878 C 127.565 115.640,124.012 120.477,118.000 125.347 C 116.204 126.802,117.296 126.252,119.400 124.641 C 123.048 121.850,126.668 117.294,128.536 113.143 C 129.746 110.455,130.540 108.006,130.284 107.751 C 130.177 107.643,129.762 108.600,129.364 109.878 M73.044 116.100 C 75.277 119.927,80.709 125.382,83.695 126.795 C 84.498 127.175,84.488 127.143,83.610 126.512 C 79.470 123.536,73.600 117.443,73.600 116.122 C 73.600 115.835,73.409 115.600,73.176 115.600 C 72.943 115.600,72.884 115.825,73.044 116.100 M84.800 127.337 C 84.800 127.830,91.879 130.655,92.231 130.302 C 92.349 130.185,91.400 129.765,90.122 129.369 C 88.845 128.973,87.210 128.323,86.488 127.924 C 85.188 127.207,84.800 127.072,84.800 127.337 M107.800 130.000 C 107.296 130.217,107.222 130.344,107.600 130.344 C 107.930 130.344,108.560 130.189,109.000 130.000 C 109.504 129.783,109.578 129.656,109.200 129.656 C 108.870 129.656,108.240 129.811,107.800 130.000 M93.800 130.800 C 95.561 131.248,97.799 131.248,96.400 130.800 C 95.850 130.624,94.770 130.483,94.000 130.487 L 92.600 130.495 93.800 130.800 M103.600 130.800 C 102.628 131.111,102.633 131.120,103.800 131.120 C 104.460 131.120,105.450 130.976,106.000 130.800 C 106.972 130.489,106.967 130.480,105.800 130.480 C 105.140 130.480,104.150 130.624,103.600 130.800 M255.600 150.411 C 254.811 150.583,255.859 150.624,258.000 150.504 C 260.090 150.387,261.875 150.226,261.967 150.146 C 262.270 149.881,257.027 150.099,255.600 150.411 M262.433 150.144 C 262.525 150.224,264.760 150.383,267.400 150.498 C 270.417 150.630,271.531 150.587,270.400 150.383 C 268.615 150.062,262.113 149.867,262.433 150.144 M251.000 151.200 C 249.981 151.638,251.032 151.638,252.400 151.200 C 253.204 150.943,253.243 150.877,252.600 150.868 C 252.160 150.862,251.440 151.011,251.000 151.200 M274.200 151.200 C 275.892 151.631,277.344 151.631,276.000 151.200 C 275.450 151.024,274.550 150.883,274.000 150.887 C 273.102 150.894,273.122 150.926,274.200 151.200 M247.400 152.000 C 246.381 152.438,247.432 152.438,248.800 152.000 C 249.604 151.743,249.643 151.677,249.000 151.668 C 248.560 151.662,247.840 151.811,247.400 152.000 M278.400 152.000 C 279.768 152.438,280.819 152.438,279.800 152.000 C 279.360 151.811,278.640 151.662,278.200 151.668 C 277.557 151.677,277.596 151.743,278.400 152.000 M244.800 152.800 C 244.267 153.145,244.267 153.188,244.800 153.188 C 245.130 153.188,245.670 153.013,246.000 152.800 C 246.533 152.455,246.533 152.412,246.000 152.412 C 245.670 152.412,245.130 152.587,244.800 152.800 M83.800 156.800 L 83.000 157.144 83.800 157.166 C 84.240 157.178,84.870 157.013,85.200 156.800 C 85.995 156.286,84.996 156.286,83.800 156.800 M115.000 156.800 C 115.440 156.989,116.070 157.144,116.400 157.144 C 116.778 157.144,116.704 157.017,116.200 156.800 C 115.760 156.611,115.130 156.456,114.800 156.456 C 114.422 156.456,114.496 156.583,115.000 156.800 M171.400 156.800 C 170.896 157.017,170.822 157.144,171.200 157.144 C 171.530 157.144,172.160 156.989,172.600 156.800 C 173.104 156.583,173.178 156.456,172.800 156.456 C 172.470 156.456,171.840 156.611,171.400 156.800 M202.400 156.800 C 202.730 157.013,203.360 157.178,203.800 157.166 L 204.600 157.144 203.800 156.800 C 202.604 156.286,201.605 156.286,202.400 156.800 M292.000 156.571 C 292.000 156.847,294.514 158.020,294.702 157.831 C 294.797 157.736,294.327 157.376,293.657 157.029 C 292.409 156.384,292.000 156.271,292.000 156.571 M78.590 160.122 C 76.824 161.945,75.349 164.449,76.437 163.777 C 76.637 163.654,76.800 163.282,76.800 162.950 C 76.800 162.619,77.794 161.370,79.009 160.174 C 80.224 158.978,81.089 158.000,80.932 158.000 C 80.774 158.000,79.720 158.955,78.590 160.122 M120.417 159.506 C 122.126 161.026,123.383 163.030,124.365 165.800 L 124.791 167.000 124.547 165.627 C 124.106 163.135,121.488 159.415,119.400 158.312 C 118.960 158.079,119.418 158.617,120.417 159.506 M166.610 159.633 C 164.877 161.231,162.779 164.743,162.821 165.979 C 162.832 166.320,163.219 165.616,163.681 164.414 C 164.230 162.984,165.252 161.496,166.634 160.114 C 169.139 157.609,169.125 157.316,166.610 159.633 M230.895 159.411 C 229.743 160.186,228.800 160.908,228.800 161.015 C 228.800 161.121,229.790 160.551,231.000 159.747 C 232.922 158.471,233.487 158.000,233.095 158.000 C 233.037 158.000,232.047 158.635,230.895 159.411 M295.200 158.114 C 295.200 158.355,298.306 160.400,298.671 160.400 C 298.830 160.400,298.789 160.249,298.580 160.064 C 297.952 159.508,295.200 157.921,295.200 158.114 M207.600 158.907 C 207.600 159.272,209.653 161.280,209.838 161.095 C 209.923 161.011,209.454 160.426,208.796 159.796 C 208.138 159.166,207.600 158.766,207.600 158.907 M299.200 160.540 C 299.200 160.646,299.920 161.303,300.800 162.000 C 301.680 162.697,302.396 163.117,302.391 162.934 C 302.383 162.587,299.200 160.201,299.200 160.540 M225.400 163.538 C 222.337 166.082,218.595 169.985,217.219 172.071 C 216.651 172.931,216.875 172.764,217.853 171.600 C 219.810 169.268,224.506 164.607,226.800 162.718 C 227.790 161.903,228.510 161.231,228.400 161.224 C 228.290 161.217,226.940 162.259,225.400 163.538 M306.023 166.403 C 307.906 168.271,310.223 170.835,311.171 172.100 C 312.120 173.365,312.986 174.400,313.096 174.400 C 313.838 174.400,307.329 166.911,304.696 164.737 C 303.302 163.586,303.747 164.144,306.023 166.403 M75.429 165.429 C 75.281 166.015,75.238 166.572,75.332 166.666 C 75.427 166.760,75.624 166.358,75.771 165.771 C 75.919 165.185,75.962 164.628,75.868 164.534 C 75.773 164.440,75.576 164.842,75.429 165.429 M211.634 165.000 C 211.622 165.440,211.787 166.070,212.000 166.400 C 212.514 167.195,212.514 166.196,212.000 165.000 L 211.656 164.200 211.634 165.000 M162.596 241.000 L 162.600 315.400 163.661 317.600 C 164.717 319.793,165.882 321.281,167.400 322.380 C 167.840 322.699,167.444 322.159,166.519 321.180 C 165.595 320.201,164.425 318.500,163.919 317.400 L 163.000 315.400 162.796 241.000 L 162.592 166.600 162.596 241.000 M74.996 240.600 C 74.996 280.860,75.043 297.271,75.100 277.068 C 75.157 256.866,75.157 223.926,75.100 203.868 C 75.043 183.811,74.996 200.340,74.996 240.600 M124.996 240.600 C 124.996 280.860,125.043 297.271,125.100 277.068 C 125.157 256.866,125.157 223.926,125.100 203.868 C 125.043 183.811,124.996 200.340,124.996 240.600 M214.817 175.241 C 214.163 176.143,213.519 177.226,213.385 177.646 C 213.252 178.067,212.948 178.291,212.709 178.144 C 212.429 177.971,212.394 178.067,212.609 178.415 C 212.874 178.844,213.029 178.805,213.371 178.222 C 213.607 177.820,214.388 176.615,215.107 175.545 C 216.693 173.183,216.474 172.953,214.817 175.241 M314.586 177.100 C 314.935 177.815,315.306 178.400,315.410 178.400 C 315.808 178.400,315.552 177.763,314.767 176.800 L 313.952 175.800 314.586 177.100 M317.084 181.786 C 317.897 183.428,318.627 184.707,318.706 184.627 C 318.885 184.449,316.065 178.800,315.798 178.800 C 315.693 178.800,316.271 180.144,317.084 181.786 M320.400 189.786 C 320.400 189.888,320.652 190.743,320.959 191.686 C 321.267 192.629,321.740 194.390,322.011 195.600 C 322.721 198.773,323.234 200.207,322.939 198.200 C 322.442 194.805,320.400 188.039,320.400 189.786 M238.200 193.997 C 237.716 194.203,238.508 194.249,240.200 194.113 C 241.740 193.989,243.075 193.823,243.167 193.744 C 243.517 193.441,238.961 193.673,238.200 193.997 M244.433 193.744 C 244.525 193.823,245.860 193.989,247.400 194.113 C 249.092 194.249,249.884 194.203,249.400 193.997 C 248.639 193.673,244.083 193.441,244.433 193.744 M234.800 194.800 C 234.005 195.314,235.004 195.314,236.200 194.800 L 237.000 194.456 236.200 194.434 C 235.760 194.422,235.130 194.587,234.800 194.800 M251.400 194.800 C 252.596 195.314,253.595 195.314,252.800 194.800 C 252.470 194.587,251.840 194.422,251.400 194.434 L 250.600 194.456 251.400 194.800 M226.269 198.837 C 225.242 199.518,224.291 200.253,224.156 200.471 C 224.022 200.689,224.921 200.196,226.156 199.377 C 228.157 198.048,228.690 197.600,228.269 197.600 C 228.196 197.600,227.297 198.157,226.269 198.837 M259.200 197.737 C 259.200 197.823,259.965 198.398,260.900 199.015 C 261.861 199.649,262.352 199.834,262.029 199.442 C 261.487 198.782,259.200 197.404,259.200 197.737 M264.742 201.946 C 265.921 203.076,266.966 204.000,267.066 204.000 C 267.483 204.000,266.671 203.171,264.699 201.583 L 262.600 199.893 264.742 201.946 M323.240 201.433 C 323.262 202.075,323.433 203.050,323.620 203.600 C 323.849 204.274,323.884 203.949,323.728 202.600 C 323.469 200.350,323.179 199.659,323.240 201.433 M221.000 203.200 C 220.141 204.080,219.609 204.785,219.819 204.766 C 220.186 204.734,223.065 201.600,222.728 201.600 C 222.637 201.600,221.859 202.320,221.000 203.200 M268.691 206.347 C 269.521 207.417,270.429 208.632,270.708 209.047 C 271.134 209.678,271.140 209.638,270.743 208.800 C 270.096 207.434,267.871 204.435,267.491 204.416 C 267.321 204.407,267.861 205.276,268.691 206.347 M218.310 206.500 C 217.250 207.898,216.273 209.600,216.529 209.600 C 216.616 209.600,217.344 208.610,218.147 207.400 C 219.759 204.973,219.850 204.468,218.310 206.500 M324.035 207.233 C 324.054 208.205,324.220 209.900,324.404 211.000 C 324.649 212.473,324.680 212.052,324.520 209.400 C 324.293 205.624,323.975 204.204,324.035 207.233 M212.649 219.415 C 212.512 219.773,212.421 220.726,212.447 221.533 C 212.490 222.883,212.520 222.842,212.826 221.013 C 213.168 218.970,213.090 218.267,212.649 219.415 M274.693 221.000 C 274.813 222.320,274.976 223.475,275.055 223.567 C 275.351 223.907,275.131 220.170,274.810 219.400 C 274.608 218.917,274.562 219.551,274.693 221.000 M211.829 315.029 C 211.681 315.615,211.638 316.172,211.732 316.266 C 211.827 316.360,212.024 315.958,212.171 315.371 C 212.319 314.785,212.362 314.228,212.268 314.134 C 212.173 314.040,211.976 314.442,211.829 315.029 M275.234 314.800 C 275.246 315.130,275.411 315.760,275.600 316.200 L 275.944 317.000 275.966 316.200 C 275.978 315.760,275.813 315.130,275.600 314.800 C 275.255 314.267,275.215 314.267,275.234 314.800 M324.229 315.429 C 324.081 316.015,324.038 316.572,324.132 316.666 C 324.227 316.760,324.424 316.358,324.571 315.771 C 324.719 315.185,324.762 314.628,324.668 314.534 C 324.573 314.440,324.376 314.842,324.229 315.429 M75.467 315.800 C 76.233 319.543,80.497 323.812,84.200 324.542 C 85.356 324.770,85.363 324.763,84.400 324.341 C 79.937 322.386,77.776 320.590,76.626 317.882 C 75.124 314.346,75.196 314.476,75.467 315.800 M124.027 316.298 C 123.148 319.564,119.564 323.148,116.298 324.027 C 115.430 324.261,114.793 324.526,114.882 324.615 C 115.758 325.492,120.559 322.449,122.672 319.678 C 123.856 318.127,125.010 315.277,124.615 314.882 C 124.526 314.793,124.261 315.430,124.027 316.298 M320.921 321.047 C 319.777 322.234,319.163 323.034,319.555 322.824 C 320.274 322.439,323.200 319.369,323.200 318.999 C 323.200 318.690,323.129 318.753,320.921 321.047 M208.575 321.300 L 207.400 322.600 208.700 321.425 C 209.415 320.779,210.000 320.194,210.000 320.125 C 210.000 319.816,209.670 320.088,208.575 321.300 M278.601 321.134 C 279.260 321.868,280.160 322.655,280.600 322.883 C 281.040 323.111,281.220 323.140,281.000 322.948 C 280.780 322.755,279.880 321.968,279.001 321.199 L 277.402 319.800 278.601 321.134 M168.615 323.225 C 168.856 323.614,172.362 324.973,172.570 324.758 C 172.654 324.671,171.755 324.220,170.573 323.756 C 169.390 323.292,168.509 323.053,168.615 323.225 M202.600 324.400 C 202.096 324.617,202.022 324.744,202.400 324.744 C 202.730 324.744,203.360 324.589,203.800 324.400 C 204.304 324.183,204.378 324.056,204.000 324.056 C 203.670 324.056,203.040 324.211,202.600 324.400 M283.800 324.400 C 284.240 324.589,284.870 324.744,285.200 324.744 C 285.578 324.744,285.504 324.617,285.000 324.400 C 284.560 324.211,283.930 324.056,283.600 324.056 C 283.222 324.056,283.296 324.183,283.800 324.400 M315.000 324.400 C 314.496 324.617,314.422 324.744,314.800 324.744 C 315.130 324.744,315.760 324.589,316.200 324.400 C 316.704 324.183,316.778 324.056,316.400 324.056 C 316.070 324.056,315.440 324.211,315.000 324.400 M93.100 325.099 C 96.895 325.165,103.105 325.165,106.900 325.099 C 110.695 325.034,107.590 324.980,100.000 324.980 C 92.410 324.980,89.305 325.034,93.100 325.099 M180.700 325.099 C 184.495 325.165,190.705 325.165,194.500 325.099 C 198.295 325.034,195.190 324.980,187.600 324.980 C 180.010 324.980,176.905 325.034,180.700 325.099 " stroke="none" fill="#94b5e2" fill-rule="evenodd"></path></g></svg>